<?xml version="1.0" standalone="no"?>
<!DOCTYPE svg PUBLIC "-//W3C//DTD SVG 20010904//EN"
 "http://www.w3.org/TR/2001/REC-SVG-20010904/DTD/svg10.dtd">
<svg version="1.0" xmlns="http://www.w3.org/2000/svg"
 width="256.000000pt" height="256.000000pt" viewBox="0 0 256.000000 256.000000"
 preserveAspectRatio="xMidYMid meet">

<g transform="translate(0.000000,256.000000) scale(0.100000,-0.100000)"
fill="#000000" stroke="none">
<path d="M452 2540 c-109 -29 -187 -74 -272 -160 -87 -86 -131 -163 -160 -276
-19 -73 -20 -113 -20 -824 0 -711 1 -751 20 -824 29 -113 73 -190 160 -276 86
-87 163 -131 276 -160 73 -19 113 -20 824 -20 711 0 751 1 824 20 113 29 190
73 276 160 87 86 131 163 160 276 19 73 20 113 20 824 0 711 -1 751 -20 824
-29 113 -73 190 -160 277 -55 56 -95 86 -150 113 -136 66 -131 66 -960 65
-701 0 -749 -1 -818 -19z m458 -521 c100 -21 120 -22 160 -4 50 23 85 14 106
-26 24 -46 64 -214 71 -295 6 -70 5 -72 -21 -89 -39 -26 -63 -11 -134 82 -71
93 -134 153 -194 184 -93 49 -245 18 -314 -64 -144 -171 -102 -560 78 -723 67
-60 119 -79 223 -79 82 0 97 3 155 32 36 18 91 55 122 83 65 58 96 63 112 17
22 -61 -85 -199 -203 -261 -187 -98 -404 -100 -598 -6 -145 71 -246 199 -288
365 -20 78 -19 240 1 318 59 229 249 411 480 461 81 17 180 19 244 5z m831
-19 c35 -19 25 -69 -22 -112 -37 -34 -41 -41 -35 -72 5 -27 87 -241 228 -596
8 -22 23 11 119 265 60 160 112 310 115 335 5 40 2 50 -25 84 -68 85 -36 106
156 106 130 0 145 -2 163 -20 27 -27 25 -47 -9 -78 -113 -105 -93 -67 -275
-533 -215 -554 -203 -527 -237 -545 -16 -8 -61 -17 -101 -20 -63 -6 -75 -4
-89 12 -9 11 -96 222 -194 469 -98 248 -189 472 -202 499 -13 26 -44 67 -69
91 -47 46 -56 81 -28 109 13 14 50 16 250 16 143 0 243 -4 255 -10z"/>
</g>
</svg>
