<?xml version="1.0" standalone="no"?>
<!DOCTYPE svg PUBLIC "-//W3C//DTD SVG 20010904//EN"
 "http://www.w3.org/TR/2001/REC-SVG-20010904/DTD/svg10.dtd">
<svg version="1.0" xmlns="http://www.w3.org/2000/svg"
 width="256.000000pt" height="256.000000pt" viewBox="0 0 256.000000 256.000000"
 preserveAspectRatio="xMidYMid meet">

<g transform="translate(0.000000,256.000000) scale(0.100000,-0.100000)"
fill="#000000" stroke="none">
<path d="M472 2545 c-214 -47 -397 -224 -454 -440 -19 -73 -19 -1577 0 -1650
43 -163 169 -319 313 -388 139 -67 145 -67 954 -67 810 0 803 0 945 68 104 50
211 158 263 263 68 138 68 144 65 990 l-3 754 -26 72 c-39 106 -73 159 -154
240 -83 81 -181 135 -292 158 -97 21 -1516 20 -1611 0z m453 -650 c78 -19 107
-18 149 1 44 22 81 12 101 -26 26 -50 65 -211 72 -294 7 -88 -3 -106 -58 -106
-23 0 -39 15 -99 95 -113 150 -194 204 -305 205 -124 0 -227 -82 -267 -213
-18 -59 -20 -86 -15 -186 10 -227 91 -384 239 -463 37 -20 58 -23 143 -23 93
0 104 2 160 32 33 17 86 54 118 82 62 54 90 63 107 32 15 -30 12 -52 -13 -100
-57 -106 -195 -204 -333 -237 -102 -24 -286 -15 -375 18 -229 85 -353 247
-379 493 -30 289 136 559 406 661 117 44 244 54 349 29z m816 -15 c34 -19 25
-73 -18 -113 -25 -25 -36 -44 -36 -64 0 -16 48 -152 107 -303 60 -151 113
-286 118 -300 9 -22 24 12 120 270 60 162 112 312 115 332 5 31 0 43 -26 75
-37 44 -39 76 -9 97 18 13 52 16 163 16 111 0 145 -3 163 -16 32 -22 28 -61
-10 -92 -88 -73 -104 -96 -147 -207 -255 -664 -327 -839 -354 -859 -23 -17
-43 -21 -115 -21 l-87 0 -200 500 c-197 494 -201 501 -252 554 -57 57 -66 90
-36 123 15 16 36 18 250 18 142 0 242 -4 254 -10z"/>
</g>
</svg>
